<?xml version="1.0" encoding="UTF-8" standalone="no"?>
<!-- Created with Inkscape (http://www.inkscape.org/) -->

<svg
   xmlns:dc="http://purl.org/dc/elements/1.1/"
   xmlns:cc="http://creativecommons.org/ns#"
   xmlns:rdf="http://www.w3.org/1999/02/22-rdf-syntax-ns#"
   xmlns:svg="http://www.w3.org/2000/svg"
   xmlns="http://www.w3.org/2000/svg"
   xmlns:sodipodi="http://sodipodi.sourceforge.net/DTD/sodipodi-0.dtd"
   xmlns:inkscape="http://www.inkscape.org/namespaces/inkscape"
   width="24"
   height="24"
   id="svg2"
   version="1.1"
   inkscape:version="0.91 r13725"
   sodipodi:docname="close_prelight.svg">
  <defs
     id="defs4" />
  <sodipodi:namedview
     id="base"
     pagecolor="#ffffff"
     bordercolor="#666666"
     borderopacity="1.0"
     inkscape:pageopacity="0.0"
     inkscape:pageshadow="2"
     inkscape:zoom="20"
     inkscape:cx="15.578221"
     inkscape:cy="6.7316972"
     inkscape:document-units="px"
     inkscape:current-layer="g4092"
     showgrid="true"
     fit-margin-top="0"
     fit-margin-left="0"
     fit-margin-right="0"
     fit-margin-bottom="0"
     inkscape:window-width="1854"
     inkscape:window-height="1059"
     inkscape:window-x="1986"
     inkscape:window-y="21"
     inkscape:window-maximized="1">
    <inkscape:grid
       type="xygrid"
       id="grid4139" />
  </sodipodi:namedview>
  <metadata
     id="metadata7">
    <rdf:RDF>
      <cc:Work
         rdf:about="">
        <dc:format>image/svg+xml</dc:format>
        <dc:type
           rdf:resource="http://purl.org/dc/dcmitype/StillImage" />
        <dc:title />
      </cc:Work>
    </rdf:RDF>
  </metadata>
  <g
     inkscape:label="Layer 1"
     inkscape:groupmode="layer"
     id="layer1"
     transform="translate(-671.14288,-651.57648)">
    <g
       transform="matrix(0.1265625,0,0,-0.1265625,672.07092,663.09636)"
       inkscape:label="ink_ext_XXXXXX"
       id="g4090">
      <g
         transform="scale(0.1,0.1)"
         id="g4092">
        <path
           id="path4094"
           style="fill:#d52735;fill-opacity:1;fill-rule:evenodd;stroke:none"
           d="m 874.82644,-591.02183 c 305.45606,0 553.08146,247.62594 553.08146,553.085986 0,305.461344 -247.6254,553.086854 -553.08146,553.086854 -305.46514,0 -553.09133,-247.62551 -553.09133,-553.086854 0,-305.460046 247.62619,-553.085986 553.09133,-553.085986"
           inkscape:connector-curvature="0" />
        <path
           id="path4096"
           style="fill:#f25056;fill-opacity:1;fill-rule:evenodd;stroke:none"
           d="m 874.82644,-543.98358 c 279.47416,0 506.03756,226.56827 506.03756,506.047736 0,279.480764 -226.5634,506.044124 -506.03756,506.044124 -279.48455,0 -506.04798,-226.56336 -506.04798,-506.044124 0,-279.479466 226.56343,-506.047736 506.04798,-506.047736"
           inkscape:connector-curvature="0" />
        <path
           id="path4098"
           style="fill:#9f1d2b;fill-opacity:1;fill-rule:evenodd;stroke:none"
           d="m 613.95323,-233.69594 456.62807,456.62952 c 17.672,17.67062 46.5834,17.67062 64.2644,0 l 0.8449,-0.85403 c 17.6759,-17.67062 17.6759,-46.58336 0,-64.25916 L 679.06122,-298.80396 c -17.6758,-17.6758 -46.58852,-17.6758 -64.25915,0 l -0.85402,0.84367 c -17.67191,17.6758 -17.67191,46.59371 0,64.26435"
           inkscape:connector-curvature="0" />
        <path
           id="path4100"
           style="fill:#9f1d2b;fill-opacity:1;fill-rule:evenodd;stroke:none"
           d="m 679.0664,222.93358 456.6242,-456.62952 c 17.6707,-17.67064 17.6707,-46.58855 0,-64.25918 l -0.8502,-0.84884 c -17.6757,-17.6758 -46.5871,-17.6758 -64.2591,0 L 613.95323,157.82039 c -17.67709,17.6758 -17.67709,46.58854 0,64.26433 l 0.84884,0.84886 c 17.6758,17.67579 46.58852,17.67579 64.26433,0"
           inkscape:connector-curvature="0" />
      </g>
    </g>
  </g>
</svg>
